<?xml version="1.0" encoding="UTF-8"?> <svg xmlns="http://www.w3.org/2000/svg" viewBox="0 0 1003 931"><defs><style>.cls-1{isolation:isolate;}.cls-2{fill:#f2f1f0;}.cls-13,.cls-14,.cls-15,.cls-16,.cls-20,.cls-22,.cls-3{fill:none;}.cls-3{stroke:#ddd6ff;}.cls-14,.cls-17,.cls-18,.cls-19,.cls-20,.cls-3{stroke-miterlimit:10;}.cls-20,.cls-3{stroke-width:1.85px;}.cls-4{fill:#ddd6ff;}.cls-5{fill:#ff95a9;}.cls-6{fill:#40327a;}.cls-7{fill:#f79300;}.cls-8{fill:#0d6eb8;}.cls-9{fill:#ffc359;}.cls-10{fill:#e5649a;}.cls-11{fill:#242638;}.cls-12,.cls-17,.cls-18,.cls-19,.cls-26,.cls-27{fill:#fff;}.cls-13,.cls-14{stroke:#242638;}.cls-13,.cls-15,.cls-16,.cls-22{stroke-linecap:round;stroke-linejoin:round;}.cls-13{stroke-width:0.67px;}.cls-14,.cls-22{stroke-width:0.92px;}.cls-15,.cls-16,.cls-22{stroke:#1e183f;}.cls-15{stroke-width:0.46px;}.cls-16{stroke-width:0.69px;}.cls-17,.cls-18,.cls-19{stroke:#000;}.cls-18{stroke-width:0.91px;}.cls-19{stroke-width:0.92px;}.cls-20{stroke:#40327a;}.cls-21{fill:#a9bdd2;}.cls-23{fill:#ffe4e1;mix-blend-mode:multiply;}.cls-24{fill:#ccc;}.cls-25{fill:#e8e8e8;}.cls-26{opacity:0.71;}.cls-27{opacity:0.4;}.cls-28{fill:#b7b7b7;}</style></defs><title>biological-age</title><g class="cls-1"><g id="Layer_1" data-name="Layer 1"><ellipse class="cls-2" cx="498.5" cy="832.53" rx="465.5" ry="83.47"></ellipse><path class="cls-3" d="M562.48,210.11c-7.59.56-15.27,1.15-22.5,3.51s-14.1,6.73-18,13.3c-4.14,7.05-4.38,15.74-7.64,23.24-3,6.79-8.26,12.31-11.64,18.9-7.68,15-3.56,35.05,9.4,45.8s33.44,11.08,46.74.76"></path><path class="cls-4" d="M584.41,309.45c7.55-.23,15.38,1.37,22.52-1.12a20.52,20.52,0,0,0,9.64-31.67c-2.93-3.91-7.18-6.68-10.07-10.62-6.26-8.5-4.93-20.21-7.71-30.4-4.3-15.73-19.89-27.64-36.2-27.64-6.31,0-12.52,1.58-18.48,3.68-8.13,2.86-16.57,7.31-20,15.24-3.64,8.52-.47,18.77-4,27.31-3.09,7.36-10.59,12-14.32,19.06-4.71,8.88-2.55,20,2.4,28.79a34.23,34.23,0,0,0,11.26,12.42c9.46,5.89,21.63,5,32.44,2.29S573.27,309.77,584.41,309.45Z"></path><path class="cls-5" d="M648.27,696c0,2,0,29-2.54,49.79S635,825.88,635,825.88s7.06,44.18,2.26,44.18-63.78,4.62-70.27-1,40.07-26.71,46.56-45.17-1.41-129.57-1.41-129.57Z"></path><path class="cls-6" d="M567,869.07c-3.29-2.84,7-9.65,18.87-18.09,3.19,6,14.73,17.76,51.38-9.05,1.54,12.64,2.86,28.13,0,28.13C632.47,870.06,573.49,874.68,567,869.07Z"></path><path class="cls-5" d="M589.86,696c0,2,0,29-2.54,49.79s-10.72,80.12-10.72,80.12,7,44.18,2.25,44.18-63.78,4.62-70.27-1,40.08-26.71,46.57-45.17-1.41-129.57-1.41-129.57Z"></path><path class="cls-6" d="M508.58,869.07c-3.28-2.84,7-9.65,18.87-18.09,3.19,6,14.74,17.76,51.38-9.05,1.55,12.64,2.86,28.13,0,28.13C574.06,870.06,515.08,874.68,508.58,869.07Z"></path><path class="cls-7" d="M564.59,323.36s-36.38,11.09-49.32,23.42c0,0-4.93,78.3-4.32,106,0,0,11.72,42.54,24.66,68.43l29.59-13.56L560.89,496,593,492.89l-11.1,12.33L605.27,525l26.51-29L662,482.41l-6.78-24s4.93-97.41-16.65-121.45C638.56,336.92,598.49,321.51,564.59,323.36Z"></path><path class="cls-8" d="M534.07,490.89s-.46,64.73.46,95.24,3.24,116.52,3.24,116.52,62.42,9.71,123-.93c0,0,11.09-187.25,3.7-204.36s-12-25-12-25Z"></path><rect class="cls-9" x="531.1" y="512.88" width="64.82" height="90.53" rx="3.98" transform="translate(1079.2 -44.45) rotate(85.83)"></rect><path class="cls-5" d="M586.78,504.3l-13.87,17.1-6.47,12.49-10.18-27.75-16.18,8.33L555.34,545l-1.85,31.44,2.77-3.23.93,5.08,3.24-4.16,2.77,3.24,3.24-8.32,3.23,11.55s1.62,6.94,3.47,6.94,2.31-15,2.31-15,3.3,13,5.2,13.18c1.62.12,1.51-5.89,1.51-5.89s2.77-2.89-5.09-23.24c0,0,10.64-17.11,9.71-26.35l15.72-19Z"></path><path class="cls-5" d="M580.26,280.73s9.63,39.22,10.84,42.32,8.63,5.24,8.63,5.24-22.25,23.93-51.79,4.93c0,0,9.43-5.68,10.48-8s-2.2-29.12-2.2-29.12Z"></path><path class="cls-10" d="M574.47,284.25l-6.38,4.07-12.21,9.38c.77,2.46,1.31,7.93,1.93,12.87,5.52-.78,17.46-4.28,25.19-19.11-.53-1.93-1.86-6-1.85-7.79Z"></path><path class="cls-5" d="M530.38,252.4c-5.44,34.92,11.13,50.91,19.06,52.06,10.24,1.48,28.69-5.34,33.77-20.66,0,0,12.69.58,14-6.32,2.4-12.7-8-6.55-8-6.55s19.84-43.21-14.51-54.65C552.25,208.8,535.6,218.92,530.38,252.4Z"></path><path class="cls-11" d="M571.45,257.3c-.29-.81-1.89-1.06-2.59-1.33a12.83,12.83,0,0,0-4.5-.81,25.88,25.88,0,0,0-3.62.31c-.81.11-2.24.5-2.9-.2a1.27,1.27,0,0,1,.14-1.64c.95-1,3-1,4.29-1C566,252.43,570.05,253.37,571.45,257.3Z"></path><path class="cls-11" d="M531,253.38c.43-.74,2-.71,2.78-.85a12.82,12.82,0,0,1,4.58,0,28.23,28.23,0,0,1,3.5.94c.78.26,2.12.9,2.89.33a1.27,1.27,0,0,0,.15-1.64c-.75-1.17-2.79-1.52-4-1.8C537.27,249.56,533.11,249.76,531,253.38Z"></path><ellipse class="cls-10" cx="565.88" cy="273.22" rx="2.93" ry="5.78" transform="matrix(0.06, -1, 1, 0.06, 258.95, 821.54)"></ellipse><path class="cls-10" d="M541.4,273.66c.09-1.62-2.12-3.07-4.95-3.24s-5.2,1-5.29,2.62,2.11,3.06,4.94,3.23S541.3,275.27,541.4,273.66Z"></path><path class="cls-11" d="M550.58,278c-2.46-.15-4-2.67-4.1-2.79a.48.48,0,0,1,0-.48,29.48,29.48,0,0,0,3-15.07.49.49,0,0,1,.43-.54.51.51,0,0,1,.54.43,30.07,30.07,0,0,1-2.93,15.38,4.84,4.84,0,0,0,3.18,2.1h.17a.5.5,0,0,1,.46.49.51.51,0,0,1-.5.49Z"></path><path class="cls-4" d="M589.19,270.93a16.44,16.44,0,0,1-2.47,1.47c-.26,0-18.46-27.5-24.59-41.44l-33.75,23.38s1.84-25.65,11.4-31.9,14.91-14.61,33.2-8,25.75,22.63,22.6,37.85S589.19,270.93,589.19,270.93Z"></path><path class="cls-11" d="M566.49,264.23c.37-2.91-.84-5.46-2.69-5.69s-3.66,1.93-4,4.85.84,5.46,2.69,5.69S566.13,267.15,566.49,264.23Z"></path><ellipse class="cls-11" cx="538.14" cy="263" rx="5.32" ry="3.39" transform="matrix(0.13, -0.99, 0.99, 0.13, 209.82, 763.96)"></ellipse><path class="cls-10" d="M560.79,284.44l-7.65-3-2.91,2.23-2.56-2.37-6.08,2.84s2.18,9.5,9,9.95C558.59,294.59,560.79,284.44,560.79,284.44Z"></path><path class="cls-12" d="M560.79,284.44l-19.2-.32S550.33,297.41,560.79,284.44Z"></path><path class="cls-13" d="M562.75,281.59a4,4,0,0,1,1.83,4.74"></path><path class="cls-13" d="M540.19,282.55a8.1,8.1,0,0,0-.89,3.23"></path><path class="cls-12" d="M583.94,281.93a3.37,3.37,0,1,1,3.37,3.37A3.37,3.37,0,0,1,583.94,281.93Z"></path><path class="cls-8" d="M593,492.89s1.23-66.73,1.23-79.22c0-10.65,8.08-69.48,10.45-86.47a247.76,247.76,0,0,1,33.93,9.72c21.58,24,16.65,121.45,16.65,121.45l6.78,24L631.78,496l-26.51,29-23.42-19.73Z"></path><path class="cls-8" d="M545,330.38,560.89,496l4.31,11.72-29.59,13.56C522.67,495.36,511,452.82,511,452.82c-.61-27.74,4.32-106,4.32-106C521.78,340.59,534.2,334.7,545,330.38Z"></path><path class="cls-14" d="M620.38,381.92l.92,66.58L593,492.89,581.5,505.5l24,19L631.78,496c10.79-12.33,23.43-37.6,23.43-37.6"></path><path class="cls-14" d="M638.56,336.92s-17.1,8.32-17.56,25.89"></path><path class="cls-14" d="M530.68,374.22s-1.54,25.89-2.16,31.75,7.09,15.41,7.09,15.41l3.08,23.12L560.89,496l4.61,11.53-30,14L534,517.83"></path><path class="cls-14" d="M515.27,346.78s7.4.93,12.94,17.88"></path><polyline class="cls-15" points="571.99 262.94 567.59 263.75 570.71 265.72"></polyline><polyline class="cls-15" points="531.41 259.94 534.3 262.02 531.88 262.71"></polyline><path class="cls-16" d="M562.8,257.28h1.5a9.07,9.07,0,0,1,9.07,9.07v3.35a3.18,3.18,0,0,1-3.18,3.18H557.36a3.18,3.18,0,0,1-3.18-3.18v-3.81A8.61,8.61,0,0,1,562.8,257.28Z" transform="translate(1127.56 530.16) rotate(-180)"></path><path class="cls-16" d="M531.7,257.28h12.83a3.18,3.18,0,0,1,3.18,3.18v3.35a9.07,9.07,0,0,1-9.07,9.07h-1.5a8.61,8.61,0,0,1-8.61-8.61v-3.81a3.18,3.18,0,0,1,3.18-3.18Z"></path><path class="cls-15" d="M547.83,264.45s2-3.47,6.59-.12"></path><line class="cls-15" x1="573.26" y1="263.87" x2="590.36" y2="268.84"></line><line class="cls-17" x1="662" y1="482" x2="632" y2="496"></line><line class="cls-18" x1="593.53" y1="481.75" x2="594" y2="490.98"></line><line class="cls-19" x1="560.05" y1="486.82" x2="560.5" y2="494.98"></line><path class="cls-20" d="M286.85,183.56c8,3.13,18.4,9.13,21.83,17,3.09,7.13,3.68,15.41,8.23,21.7,6.83,9.43,19.83,11.2,30.53,15.78,8.18,3.5,15.61,9.19,20.09,16.88s5.69,17.48,2.11,25.63c-2.2,5-6.14,9.52-6.33,15-.12,3.38,1.25,6.61,2,9.92,2.35,11-3,22.84-12,29.64s-20.92,8.91-32.05,7.25-21.49-6.78-30.72-13.2l6.8,2.34"></path><path class="cls-6" d="M351.78,332.43c-12.5,8.75-31.46,4.85-42.54,15.34-2.65,2.49-4.61,5.65-7.33,8.06-7.86,7-19.84,6.19-30.05,3.71a127.34,127.34,0,0,1-21.32-7.2c-5.75-2.53-11.57-5.7-15-11-3.83-5.93-4-13.56-7.4-19.75-6-10.93-20.51-15.21-25.89-26.43-4.3-9-1.37-19.85,3.87-28.29s12.57-15.4,18.1-23.65c7.68-11.48,4.3-24.75,8.36-37.74,5-15.85,14-25.47,30.83-28.1,13.58-2.12,36.75.42,45.45,11.26a39.58,39.58,0,0,1,8.05,19.69c.92,7.76-1.17,15.89,3,23,7,11.93,24.91,11.25,35.29,20.36a23.32,23.32,0,0,1,6.71,23.93c-1.94,6.18-6.56,12-5.45,18.36.53,3.09,2.36,5.76,3.62,8.62C364.6,312.87,360.93,326,351.78,332.43Z"></path><path class="cls-8" d="M237.47,833.43s1.06,21.46.69,36.66c0,0,.07.78,2.89.33a139.64,139.64,0,0,1,3.8-29L241.3,834Z"></path><path class="cls-5" d="M234.72,763.14,249,819.84l-6.78,4.51,7.91,16.92,1.54,24.26,23.54,5.71,2.07-6.75a26.29,26.29,0,0,1-2.58-3.09c-.51-.92-5-14.48-14.14-41.28-.34-1-.06-158.52,3-168.5L235.33,655C226.75,678.26,221.35,711,234.72,763.14Z"></path><path class="cls-8" d="M274.79,860c-12.85,9.79-22.44,12.24-25.11-32-.06-.91-.58-7.46-.2-8.5-4,3.39-12.62,3.27-12,14.1,0,0,12,5.52,11.36,31.61-.09,3.31.68,4.52,3.41,6.39,1.56,1.07,28.45,3.85,42.48,3.24C294.71,874.83,294.62,872.51,274.79,860Z"></path><path class="cls-8" d="M284.6,834.32s1.06,21.46.7,36.65c0,0,.06.78,2.88.34a139.77,139.77,0,0,1,3.8-29l-3.55-7.5Z"></path><path class="cls-5" d="M281.85,764l14.23,56.69-6.77,4.52,7.9,16.92,1.54,24.26,23.55,5.7,2.06-6.74a26.29,26.29,0,0,1-2.58-3.09c-.51-.92-5-14.49-14.13-41.28-.35-1-.07-158.52,3-168.51l-28.14,3.37C273.88,679.15,268.48,711.84,281.85,764Z"></path><path class="cls-8" d="M321.92,860.83c-12.85,9.8-22.44,12.25-25.11-32-.06-.92-.58-7.46-.2-8.5-4,3.39-12.62,3.26-12,14.1,0,0,12.05,5.52,11.36,31.61-.09,3.3.69,4.52,3.41,6.39,1.56,1.07,28.45,3.84,42.48,3.24C341.84,875.72,341.76,873.4,321.92,860.83Z"></path><path class="cls-8" d="M249.41,295.3l-29.5,14.25a22.14,22.14,0,0,0-12.44,21.71l7,86.9,12.07,16.17S209,471.91,209,481s18.22,184,18.22,184,39.17,19.13,90.18-2.73c0,0,10-175.81,10-184s-3.64-31-3.64-31L334.7,412.7l-2.5-94.83a13.38,13.38,0,0,0-8.68-12.18l-28-10.5Z"></path><rect class="cls-9" x="250.41" y="470.2" width="64.82" height="90.53" rx="3.98" transform="translate(835.08 313.75) rotate(98.69)"></rect><rect class="cls-21" x="223.81" y="505.41" width="32.33" height="7.51" transform="translate(780.7 352.76) rotate(99.1)"></rect><path class="cls-5" d="M256,247.18s.51,38-.65,41-16.51,11.91-16.51,11.91,46,71.92,47.14,71.73c.69-.11,14-70.37,14.59-73.91,0,0-15.91-7-16.92-9.22S279.19,262,279.19,262Z"></path><path class="cls-10" d="M261.57,250.57l6.16,3.93,12,9.64c.39,2.71,1.1,7.62,1.85,12.36a33.68,33.68,0,0,1-25.26-18.38c0-2.33,0-4.46-.05-6.19Z"></path><path class="cls-5" d="M306.72,217.81c5.47,35.05-11.17,51.1-19.13,52.26-10.28,1.49-28.8-5.36-33.89-20.74,0,0-12.74.59-14-6.34-2.41-12.76,8-6.57,8-6.57s-17.23-38.83,17.09-50.77C280.5,180.19,301.49,184.2,306.72,217.81Z"></path><path class="cls-6" d="M266.75,222.73c.3-.81,1.9-1.07,2.6-1.33a12.69,12.69,0,0,1,4.52-.82,25.89,25.89,0,0,1,3.63.31c.82.11,2.25.51,2.91-.2a1.25,1.25,0,0,0-.14-1.64c-.95-1-3-1-4.3-1.06C272.24,217.84,268.16,218.78,266.75,222.73Z"></path><path class="cls-6" d="M307.33,218.8c-.43-.75-2.06-.72-2.8-.85a12.65,12.65,0,0,0-4.59,0,27.33,27.33,0,0,0-3.52.95c-.78.26-2.12.9-2.89.32a1.26,1.26,0,0,1-.16-1.64c.76-1.18,2.8-1.53,4.05-1.81C301.06,215,305.24,215.16,307.33,218.8Z"></path><path class="cls-10" d="M265.3,239.06c-.1-1.62,2.41-3.1,5.61-3.29s5.87,1,6,2.59-2.41,3.09-5.61,3.28S265.4,240.68,265.3,239.06Z"></path><path class="cls-10" d="M296.25,236.36c-.1-1.62,2.12-3.07,5-3.24s5.22,1,5.32,2.62-2.13,3.08-5,3.25S296.35,238,296.25,236.36Z"></path><path class="cls-11" d="M286.45,243.47c2.46-.15,4.05-2.69,4.12-2.8a.48.48,0,0,0,0-.48,29.6,29.6,0,0,1-3-15.14.48.48,0,0,0-.44-.53.5.5,0,0,0-.54.43,30.2,30.2,0,0,0,2.94,15.43,4.78,4.78,0,0,1-3.19,2.11h-.17a.49.49,0,0,0-.46.49.49.49,0,0,0,.5.49Z"></path><path class="cls-11" d="M270.47,229.69c-.37-2.92.85-5.48,2.71-5.72s3.68,1.94,4.05,4.87-.85,5.48-2.71,5.72S270.84,232.61,270.47,229.69Z"></path><path class="cls-11" d="M295.79,226.79c-.37-2.93.85-5.49,2.71-5.72s3.67,1.94,4,4.86-.84,5.49-2.7,5.72S296.16,229.71,295.79,226.79Z"></path><path class="cls-10" d="M277.83,251l7.42-3.17,2.92,2.12,2.45-2.4,6,2.63s-2.27,8.52-9,9.22S277.83,251,277.83,251Z"></path><path class="cls-11" d="M288.73,253.61a15.26,15.26,0,0,0,7.8-3,.55.55,0,0,0,.1-.78.55.55,0,0,0-.77-.1c-7.56,5.75-17.25,1.2-17.35,1.15a.56.56,0,0,0-.74.27.55.55,0,0,0,.26.74A22.3,22.3,0,0,0,288.73,253.61Z"></path><polyline class="cls-22" points="226.98 306.35 249.07 328.44 239.51 333.22 285.96 371.82 311.7 327.07 300.08 322.74 313.52 302.02"></polyline><path class="cls-22" d="M286,371.82l.23,68.66v.45s-12,2.79-17.65,2.79"></path><line class="cls-22" x1="298.94" y1="443.9" x2="286.19" y2="440.93"></line><path class="cls-23" d="M245.65,374.89s18.73,5.13,29.72-.34C275.37,374.55,261.12,390.61,245.65,374.89Z"></path><path class="cls-22" d="M277.08,388.64a2.48,2.48,0,1,1,2.48,2.48A2.48,2.48,0,0,1,277.08,388.64Z"></path><path class="cls-22" d="M277.08,406.23a2.48,2.48,0,1,1,2.48,2.48A2.48,2.48,0,0,1,277.08,406.23Z"></path><path class="cls-22" d="M277.08,424.51a2.48,2.48,0,1,1,2.48,2.48A2.48,2.48,0,0,1,277.08,424.51Z"></path><path class="cls-5" d="M267.67,475.66l10.64,13s-3.15,5.12-1.18,10.64,2.36,27.18,2.36,27.18l-2.36,13.39,6.69-1.58,11.42-7.88-.78,12.22,10.63-15.37L298.79,491l5.91-12.61-12.21-7.09L287,480.38l-7.87-15Z"></path><path class="cls-7" d="M298,311.59c-4.05,21.4-11.53,60.14-12,60.23-.85.14-26.72-39.93-39.77-60.23Z"></path><path class="cls-22" d="M316.36,332.19a84.14,84.14,0,0,0,5.13,25.62c5.12,14.35-4.78,23.23-8.88,23.92l-.69,27.32-22.54,59.78,16.05,9.91,18.34-31.43"></path><polyline class="cls-22" points="226.53 434.33 265.47 477.83 282.77 463.25 239.51 403.59 237.23 353.94"></polyline><path class="cls-6" d="M238,219.69a14,14,0,0,0-.92,5c.18,2.85,2.07,5.31,4.17,7.25a29.12,29.12,0,0,0,8.52,5.44,78,78,0,0,0,23.65-39.54c6.53-1.68,14-2.84,19.59.9,4.07,2.72,6.22,7.44,8.44,11.81a127.81,127.81,0,0,0,11.66,18.72c-2-7.41-1.42-15.22-2.29-22.83s-3.6-15.68-10-19.81c-5.13-3.3-11.58-3.47-17.65-3.94-6.29-.48-12.6-1.39-18.86-.64s-12.62,3.41-16.18,8.62a32,32,0,0,0-3.66,8.6Q241.21,209.48,238,219.69Z"></path><polygon class="cls-2" points="514.83 825 648.27 843.62 662 887 484 876 514.83 825"></polygon><line class="cls-14" x1="592.53" y1="482" x2="592.5" y2="492.5"></line><line class="cls-14" x1="560.05" y1="487.25" x2="560.78" y2="494.82"></line><polygon class="cls-24" points="825.62 18.32 843.43 31.06 810.77 863.53 790.97 863.53 825.62 18.32"></polygon><polygon class="cls-24" points="801.37 61.16 801.37 49.58 405.3 65.02 374.29 776.69 390.78 776.69 420.15 71.2 801.37 61.16"></polygon><path class="cls-25" d="M390.78,40.32l-31.34,763L791,863.53,825.61,18.32ZM769.2,824.16,374.29,776.69,405.3,65,801.37,49.58Z"></path><polygon class="cls-26" points="514.83 60.75 399.2 205.04 395.37 292.86 573.41 58.47 514.83 60.75"></polygon><polygon class="cls-27" points="573.41 58.47 395.37 292.86 393.04 346.43 610.91 57.01 573.41 58.47"></polygon><polygon class="cls-27" points="769.2 824.16 777.08 634.39 630.01 807.43 769.2 824.16"></polygon><polygon class="cls-27" points="405.3 65.02 399.2 205.04 514.83 60.75 405.3 65.02"></polygon><polygon class="cls-26" points="541.99 796.85 630.01 807.43 777.08 634.39 781.45 529.15 541.99 796.85"></polygon><polygon class="cls-26" points="610.91 57.01 393.04 346.43 390.57 402.99 675.38 54.49 610.91 57.01"></polygon><polygon class="cls-27" points="801.37 49.58 675.38 54.49 390.57 402.99 374.29 776.69 541.99 796.85 781.45 529.15 801.37 49.58"></polygon><polygon class="cls-28" points="813.99 781.34 835.51 781.34 816.78 710.18 819.56 639.49 865.21 820.11 812.47 820.11 813.99 781.34"></polygon><polygon class="cls-25" points="865.21 820.11 885 802.94 822.68 559.82 819.56 639.49 865.21 820.11"></polygon></g></g></svg> 