<?xml version="1.0" encoding="UTF-8"?> <svg xmlns="http://www.w3.org/2000/svg" id="Layer_1" data-name="Layer 1" viewBox="0 0 66 66"><defs><style>.cls-1{fill:#fff;}.cls-2{fill:#3fbb99;}</style></defs><title>age</title><g id="meeting"><g id="work_meeting" data-name="work meeting"><path class="cls-1" d="M51.18,28.78h-21c-6.42,0-12.4,5.49-11.61,12.13L20.24,53.4c1.29,6.64,5.19,11.95,11.6,11.95H49.52c6.41,0,10.32-5.49,11.6-12.13l1.66-12.51C63.61,34.2,57.59,28.78,51.18,28.78Z"></path><path class="cls-1" d="M52.48,12.76a11.81,11.81,0,1,1-23.6,0,11.8,11.8,0,1,1,23.6,0Z"></path></g><path class="cls-2" d="M23.63,23.27H10.46c-4,0-7.77,3.4-7.27,7.55l1,7.78C5,42.75,7.49,46,11.5,46h3.8l-.73-5.47v0A13.1,13.1,0,0,1,17.9,30.2,15.28,15.28,0,0,1,23,26.49a16.09,16.09,0,0,1,5.21-1.69A7.75,7.75,0,0,0,23.63,23.27Z"></path><path class="cls-2" d="M17,20.93a7.4,7.4,0,1,0-7.39-7.4A7.4,7.4,0,0,0,17,20.93Z"></path></g></svg> 