<?xml version="1.0" encoding="UTF-8"?> <svg xmlns="http://www.w3.org/2000/svg" id="Layer_1" data-name="Layer 1" viewBox="0 0 100 102.14"><defs><style>.cls-1{fill:#fff;}</style></defs><title>chromo</title><path class="cls-1" d="M38.07,76.81a3.57,3.57,0,0,0,1.35.27A3.47,3.47,0,0,0,42.62,75l3.69-8.71H38.76l-2.54,6a3.49,3.49,0,0,0,1.85,4.56Z"></path><path class="cls-1" d="M38.56,35.89H46.1l-3.68-8.71a3.48,3.48,0,0,0-6.68,1.36A3.4,3.4,0,0,0,36,29.89l2.54,6Z"></path><polygon class="cls-1" points="45.07 51.31 40.7 61.65 48.25 61.65 50.1 57.27 51.95 61.65 59.5 61.65 54.93 50.83 59.3 40.49 51.75 40.49 49.9 44.87 48.05 40.49 40.5 40.49 45.07 51.31 45.07 51.31"></polygon><path class="cls-1" d="M63.78,29.89a3.49,3.49,0,0,0-1.85-4.56,3.57,3.57,0,0,0-1.35-.27,3.47,3.47,0,0,0-3.2,2.12l-3.69,8.71h7.55l2.54-6Z"></path><path class="cls-1" d="M61.44,66.25H53.9L57.58,75a3.48,3.48,0,0,0,6.68-1.36A3.4,3.4,0,0,0,64,72.25l-2.54-6Z"></path></svg> 