<?xml version="1.0" encoding="UTF-8"?> <svg xmlns="http://www.w3.org/2000/svg" id="Layer_1" data-name="Layer 1" viewBox="0 0 50 50"><defs><style>.cls-1{fill:#126fb8;}</style></defs><title>disease</title><path class="cls-1" d="M16.75,33.29a7.71,7.71,0,1,1,7.7,7.7,7.7,7.7,0,0,1-7.7-7.7ZM20,13.51A4.5,4.5,0,1,1,24.46,18,4.51,4.51,0,0,1,20,13.51Zm4.42,33.65a13.49,13.49,0,0,0,13.1-9.95h2.21a2,2,0,0,0,0-4H38a13.41,13.41,0,0,0-1.65-6L36.21,27h1.88a2,2,0,0,0,2-2h0a2,2,0,0,0-2-2H36.21l.09-.19A13.4,13.4,0,0,0,38,16.35q0-.42,0-.84h1.76a2,2,0,0,0,2-2h0a2,2,0,0,0-2-2H37.08a13.51,13.51,0,0,0-25.24,0H9.23a2,2,0,1,0,0,4H11q0,.42,0,.84a13.42,13.42,0,0,0,1.65,6.46l.1.21H10.83a2,2,0,1,0,0,4h1.88a2.12,2.12,0,0,1-.11.21,13.45,13.45,0,0,0-1.64,6H9.22a2,2,0,1,0,0,4h2.21a13.47,13.47,0,0,0,13,10Z"></path></svg> 