<?xml version="1.0" encoding="UTF-8"?> <svg xmlns="http://www.w3.org/2000/svg" id="Layer_1" data-name="Layer 1" viewBox="0 0 100 102.14"><defs><style>.cls-1{fill:#fff;}.cls-2{fill:#fbb416;}</style></defs><title>dna-best</title><path class="cls-1" d="M50,56c2.92,0,5.52,2.06,7.2,5.26H42.8C44.48,58.1,47.08,56,50,56Zm-7.2-15.2H57.2C55.52,44,52.92,46.1,50,46.1S44.48,44,42.8,40.84Zm-1.28-3.33a20,20,0,0,1-.59-3.29h5.7a3.76,3.76,0,0,0,6.74,0h5.7a20,20,0,0,1-.59,3.29Zm17,27.12a20,20,0,0,1,.59,3.29H53a3.75,3.75,0,0,0-5.91,0H40.93a20,20,0,0,1,.59-3.29Zm-22,5.21a30,30,0,0,0,.68,6.39A2.28,2.28,0,0,0,39.35,78h0a2.27,2.27,0,0,0,2.19-2.87,20.21,20.21,0,0,1-.65-3.91h5.5a3.75,3.75,0,0,0,7.22,0h5.5a20.21,20.21,0,0,1-.65,3.91,2.27,2.27,0,1,0,4.41,1.07,30,30,0,0,0,.68-6.39c0-8.42-3.39-15.65-8.22-18.77C60.16,48,63.55,40.72,63.55,32.3a30,30,0,0,0-.68-6.39A2.27,2.27,0,1,0,58.46,27a20.21,20.21,0,0,1,.65,3.91H53.37a3.76,3.76,0,0,0-6.74,0H40.89A20.21,20.21,0,0,1,41.54,27a2.27,2.27,0,1,0-4.41-1.07,30,30,0,0,0-.68,6.39c0,8.42,3.39,15.65,8.22,18.77-4.83,3.12-8.22,10.35-8.22,18.77Z"></path><polygon class="cls-2" points="81.59 4.94 83.33 6.06 85.37 5.75 86.51 7.48 88.5 8.03 88.84 10.07 90.44 11.38 89.92 13.38 90.84 15.23 89.56 16.85 89.65 18.91 87.81 19.86 87.06 21.79 84.99 21.91 83.52 23.36 81.59 22.64 79.65 23.36 78.18 21.91 76.11 21.79 75.36 19.86 73.52 18.91 73.61 16.85 72.32 15.23 73.25 13.38 72.73 11.38 74.33 10.07 74.67 8.03 76.66 7.48 77.8 5.75 79.84 6.06 81.59 4.94"></polygon><path class="cls-1" d="M86.16,12.33a.54.54,0,0,1-.17.4L81.72,17l-.8.8a.56.56,0,0,1-.4.17.54.54,0,0,1-.4-.17l-.81-.8-2.13-2.13a.57.57,0,0,1-.17-.41.56.56,0,0,1,.17-.4l.8-.8a.56.56,0,0,1,.8,0L80.52,15l3.87-3.88a.58.58,0,0,1,.8,0l.8.81A.54.54,0,0,1,86.16,12.33Z"></path></svg> 