<?xml version="1.0" encoding="UTF-8"?> <svg xmlns="http://www.w3.org/2000/svg" id="Layer_1" data-name="Layer 1" viewBox="0 0 66 66"><defs><style>.cls-1{fill:#fff;}.cls-2{fill:#3fbb99;}</style></defs><title>download</title><path class="cls-1" d="M1.36,40.06A10.64,10.64,0,0,1,10.75,29.5,17.48,17.48,0,0,1,42.66,21a9.39,9.39,0,0,1,11.68,8.43A10.63,10.63,0,0,1,54,50.69H12A10.63,10.63,0,0,1,1.36,40.06Z"></path><path class="cls-2" d="M22.91,37.22l7.33,7.34a1.3,1.3,0,0,0,1.81,0l7.34-7.34a1.3,1.3,0,0,0,.28-1.39A1.28,1.28,0,0,0,38.49,35H36.08V26.7a1.28,1.28,0,0,0-1.28-1.28H27.5a1.28,1.28,0,0,0-1.28,1.28V35h-2.4a1.29,1.29,0,0,0-1.19.79A1.3,1.3,0,0,0,22.91,37.22Z"></path></svg> 