<?xml version="1.0" encoding="UTF-8"?> <svg xmlns="http://www.w3.org/2000/svg" xmlns:xlink="http://www.w3.org/1999/xlink" id="artwork" viewBox="0 0 138.29 43.49"><defs><style>.cls-1,.cls-11,.cls-3,.cls-4{fill:#fff;}.cls-1{fill-opacity:0;}.cls-2{fill:#a6a6a6;}.cls-3{stroke:#fff;stroke-miterlimit:10;stroke-width:0.2px;}.cls-5{fill:url(#linear-gradient);}.cls-6{fill:url(#linear-gradient-2);}.cls-7{fill:url(#linear-gradient-3);}.cls-8{fill:url(#linear-gradient-4);}.cls-9{opacity:0.2;}.cls-10,.cls-11,.cls-9{isolation:isolate;}.cls-10{opacity:0.12;}.cls-11{opacity:0.25;}</style><linearGradient id="linear-gradient" x1="23.77" y1="175.01" x2="6.99" y2="158.22" gradientTransform="matrix(1, 0, 0, -1, 0, 185.43)" gradientUnits="userSpaceOnUse"><stop offset="0" stop-color="#00a0ff"></stop><stop offset="0.01" stop-color="#00a1ff"></stop><stop offset="0.26" stop-color="#00beff"></stop><stop offset="0.51" stop-color="#00d2ff"></stop><stop offset="0.76" stop-color="#00dfff"></stop><stop offset="1" stop-color="#00e3ff"></stop></linearGradient><linearGradient id="linear-gradient-2" x1="35.81" y1="163.71" x2="11.61" y2="163.71" gradientTransform="matrix(1, 0, 0, -1, 0, 185.43)" gradientUnits="userSpaceOnUse"><stop offset="0" stop-color="#ffe000"></stop><stop offset="0.41" stop-color="#ffbd00"></stop><stop offset="0.78" stop-color="orange"></stop><stop offset="1" stop-color="#ff9c00"></stop></linearGradient><linearGradient id="linear-gradient-3" x1="26.8" y1="161.42" x2="4.04" y2="138.66" gradientTransform="matrix(1, 0, 0, -1, 0, 185.43)" gradientUnits="userSpaceOnUse"><stop offset="0" stop-color="#ff3a44"></stop><stop offset="1" stop-color="#c31162"></stop></linearGradient><linearGradient id="linear-gradient-4" x1="9.27" y1="183.54" x2="19.43" y2="173.38" gradientTransform="matrix(1, 0, 0, -1, 0, 185.43)" gradientUnits="userSpaceOnUse"><stop offset="0" stop-color="#32a071"></stop><stop offset="0.07" stop-color="#2da771"></stop><stop offset="0.48" stop-color="#15cf74"></stop><stop offset="0.8" stop-color="#06e775"></stop><stop offset="1" stop-color="#00f076"></stop></linearGradient></defs><title>google-play</title><rect class="cls-1" x="-8.03" y="-8.28" width="155" height="60"></rect><rect x="1.97" y="1.72" width="135" height="40" rx="5"></rect><path class="cls-2" d="M132,2.52a4.2,4.2,0,0,1,4.2,4.2v30a4.21,4.21,0,0,1-4.2,4.2H7a4.21,4.21,0,0,1-4.2-4.2v-30A4.21,4.21,0,0,1,7,2.52H132m0-.8H7a5,5,0,0,0-5,5v30a5,5,0,0,0,5,5H132a5,5,0,0,0,5-5v-30a5,5,0,0,0-5-5Z"></path><path class="cls-3" d="M49.39,12a2.69,2.69,0,0,1-.75,2,2.91,2.91,0,0,1-2.2.89,3.09,3.09,0,0,1-3.12-3.13,3.09,3.09,0,0,1,3.12-3.14,3.22,3.22,0,0,1,1.23.25,2.46,2.46,0,0,1,.94.67l-.53.53a2,2,0,0,0-1.64-.71A2.27,2.27,0,0,0,44.8,10a2.29,2.29,0,0,0-.69,1.73,2.31,2.31,0,0,0,2.33,2.39,2.28,2.28,0,0,0,1.68-.67,1.89,1.89,0,0,0,.5-1.21H46.44v-.72h2.91A2.28,2.28,0,0,1,49.39,12Z"></path><path class="cls-3" d="M54,9.45H51.27v1.91h2.46v.72H51.27V14H54v.74H50.5v-6H54Z"></path><path class="cls-3" d="M57.25,14.72h-.77V9.45H54.8V8.72h4.13v.73H57.25Z"></path><path class="cls-3" d="M61.91,14.72v-6h.77v6Z"></path><path class="cls-3" d="M66.1,14.72h-.77V9.45H63.65V8.72h4.13v.73H66.1Z"></path><path class="cls-3" d="M75.58,13.94a3.11,3.11,0,0,1-4.4,0,3.07,3.07,0,0,1-.88-2.22,3.08,3.08,0,0,1,.88-2.23,2.93,2.93,0,0,1,2.2-.91,3,3,0,0,1,2.2.92,3,3,0,0,1,.88,2.22A3.07,3.07,0,0,1,75.58,13.94Zm-3.83-.5a2.32,2.32,0,0,0,3.26,0,2.38,2.38,0,0,0,.67-1.72A2.38,2.38,0,0,0,75,10a2.32,2.32,0,0,0-3.26,0,2.38,2.38,0,0,0-.67,1.73A2.38,2.38,0,0,0,71.75,13.44Z"></path><path class="cls-3" d="M77.55,14.72v-6h.93l2.92,4.66h0l0-1.15V8.72h.77v6h-.8l-3.05-4.9h0l0,1.16v3.74Z"></path><path class="cls-4" d="M70.11,23.47a4.25,4.25,0,1,0,4.27,4.25A4.19,4.19,0,0,0,70.11,23.47Zm0,6.83a2.59,2.59,0,1,1,2.4-2.58A2.46,2.46,0,0,1,70.11,30.3Zm-9.32-6.83a4.25,4.25,0,1,0,4.27,4.25A4.19,4.19,0,0,0,60.79,23.47Zm0,6.83a2.59,2.59,0,1,1,2.4-2.58A2.46,2.46,0,0,1,60.79,30.3ZM49.71,24.77v1.81H54a3.77,3.77,0,0,1-1,2.27,4.42,4.42,0,0,1-3.34,1.32,4.8,4.8,0,0,1,0-9.6A4.58,4.58,0,0,1,53,21.86l1.27-1.28a6.3,6.3,0,0,0-4.53-1.82,6.61,6.61,0,1,0,0,13.21,5.85,5.85,0,0,0,6.18-6.07,6.24,6.24,0,0,0-.1-1.13ZM95,26.17a3.94,3.94,0,0,0-3.64-2.7,4,4,0,0,0-4,4.25A4.17,4.17,0,0,0,91.59,32a4.25,4.25,0,0,0,3.55-1.88l-1.45-1a2.45,2.45,0,0,1-2.1,1.18A2.16,2.16,0,0,1,89.53,29l5.69-2.35Zm-5.8,1.42a2.34,2.34,0,0,1,2.23-2.48A1.65,1.65,0,0,1,93,26ZM84.6,31.72h1.87V19.21H84.6Zm-3.06-7.3h-.07a2.92,2.92,0,0,0-2.24-1,4.25,4.25,0,0,0,0,8.5,2.89,2.89,0,0,0,2.24-1h.07v.61c0,1.63-.87,2.5-2.27,2.5a2.37,2.37,0,0,1-2.15-1.52l-1.62.68a4,4,0,0,0,3.77,2.51c2.19,0,4-1.29,4-4.43V23.73H81.54ZM79.4,30.3a2.59,2.59,0,0,1,0-5.16,2.4,2.4,0,0,1,2.27,2.6A2.38,2.38,0,0,1,79.4,30.3Zm24.38-11.09H99.31V31.72h1.86V27h2.61a3.89,3.89,0,1,0,0-7.77Zm0,6h-2.66V21h2.66a2.15,2.15,0,1,1,0,4.29Zm11.53-1.8A3.51,3.51,0,0,0,112,25.36l1.65.69a2,2,0,0,1,3.67.69v.13a4.16,4.16,0,0,0-1.94-.48c-1.79,0-3.61,1-3.61,2.81A2.9,2.9,0,0,0,114.91,32a2.64,2.64,0,0,0,2.38-1.22h.06v1h1.8V26.9C119.15,24.68,117.5,23.44,115.36,23.44Zm-.23,6.86c-.61,0-1.46-.31-1.46-1.07,0-1,1.06-1.33,2-1.33a3.32,3.32,0,0,1,1.7.42A2.26,2.26,0,0,1,115.13,30.3Zm10.58-6.58-2.13,5.42h-.07l-2.22-5.42h-2l3.33,7.57-1.9,4.22h2l5.13-11.79Zm-16.8,8h1.86V19.21h-1.86Z"></path><path class="cls-5" d="M12.41,9.25a2,2,0,0,0-.47,1.41V32.77a2,2,0,0,0,.47,1.41l.07.07L24.87,21.86v-.29L12.48,9.18Z"></path><path class="cls-6" d="M29,26l-4.13-4.13v-.29L29,17.44l.09,0L34,20.27c1.39.8,1.39,2.1,0,2.89l-4.9,2.78Z"></path><path class="cls-7" d="M29.09,25.94l-4.22-4.22L12.41,34.18a1.61,1.61,0,0,0,2.07.06l14.61-8.3"></path><path class="cls-8" d="M29.09,17.49,14.48,9.19a1.63,1.63,0,0,0-2.07.06L24.87,21.72Z"></path><path class="cls-9" d="M29,25.85,14.48,34.1a1.66,1.66,0,0,1-2,0h0l-.07.07h0l.07.07h0a1.66,1.66,0,0,0,2,0l14.61-8.3Z"></path><path class="cls-10" d="M12.41,34a2,2,0,0,1-.47-1.4v.15a2,2,0,0,0,.47,1.4l.07-.07Z"></path><path class="cls-10" d="M34,23l-5,2.84.09.09L34,23.16a1.76,1.76,0,0,0,1-1.44h0A1.83,1.83,0,0,1,34,23Z"></path><path class="cls-11" d="M14.48,9.34,34,20.42a1.83,1.83,0,0,1,1,1.3h0a1.76,1.76,0,0,0-1-1.45L14.48,9.19c-1.39-.79-2.54-.13-2.54,1.47v.15C11.94,9.2,13.09,8.55,14.48,9.34Z"></path></svg> 