<?xml version="1.0" encoding="UTF-8"?> <svg xmlns="http://www.w3.org/2000/svg" id="Layer_1" data-name="Layer 1" viewBox="0 0 66 66"><defs><style>.cls-1{fill:#f04b4a;}.cls-2{fill:#f05253;}.cls-3{fill:#fff;stroke:#3fbb99;stroke-miterlimit:10;stroke-width:1.05px;}</style></defs><title>health</title><path class="cls-1" d="M60.12,9.43a17.88,17.88,0,0,0-25.22,0L33,11.33l-1.9-1.9A17.83,17.83,0,0,0,5.88,34.65l1.9,1.9h0L33,61.77,58.22,36.55h0l1.9-1.9A17.9,17.9,0,0,0,60.12,9.43Z"></path><path class="cls-2" d="M62,41.93A11.81,11.81,0,1,1,50.14,30.12,11.81,11.81,0,0,1,62,41.93Z"></path><path class="cls-3" d="M57.06,38.69H53.39V35a1.54,1.54,0,0,0-1.53-1.53H48.42A1.54,1.54,0,0,0,46.89,35v3.68H43.22a1.53,1.53,0,0,0-1.53,1.53v3.43a1.53,1.53,0,0,0,1.53,1.53h3.67v3.68a1.54,1.54,0,0,0,1.53,1.53h3.44a1.54,1.54,0,0,0,1.53-1.53V45.18h3.67a1.54,1.54,0,0,0,1.54-1.53V40.22A1.54,1.54,0,0,0,57.06,38.69Z"></path></svg> 