<?xml version="1.0" encoding="UTF-8"?> <svg xmlns="http://www.w3.org/2000/svg" id="Layer_1" data-name="Layer 1" viewBox="0 0 100 102.14"><defs><style>.cls-1{fill:#fff;}</style></defs><title>metabolism</title><path class="cls-1" d="M32,76.1a1,1,0,0,1-1-.83,50.63,50.63,0,0,1-.86-8A37.32,37.32,0,0,1,33.8,49a36.88,36.88,0,0,0,3-8,17.64,17.64,0,0,0-.19-6.46A70.21,70.21,0,0,0,34.85,27a1,1,0,0,1,.16-.91,1,1,0,0,1,.81-.41l3.17,0a1,1,0,0,1,1,.73c.75,2.55,1.29,5.22,1.68,7.26a22.48,22.48,0,0,1,.2,8.33,40.6,40.6,0,0,1-3.44,9.2,32.65,32.65,0,0,0-3.13,15.93,45.75,45.75,0,0,0,.87,7.75,1,1,0,0,1-.22.84,1,1,0,0,1-.77.36Z"></path><path class="cls-1" d="M35.82,26.71l3.16,0c.71,2.43,1.23,4.94,1.66,7.17a21.58,21.58,0,0,1,.2,8,39.4,39.4,0,0,1-3.37,8.95,33.69,33.69,0,0,0-3.22,16.39,47,47,0,0,0,.89,7.91l-3.09,0a49.75,49.75,0,0,1-.85-7.89,36.5,36.5,0,0,1,3.51-17.76,37.29,37.29,0,0,0,3.12-8.21,18.38,18.38,0,0,0-.19-6.84,71.92,71.92,0,0,0-1.82-7.68m0-2a2,2,0,0,0-1.93,2.63,64.8,64.8,0,0,1,1.76,7.45,16.56,16.56,0,0,1,.2,6.09,35.85,35.85,0,0,1-3,7.72,38.35,38.35,0,0,0-3.7,18.69,51.61,51.61,0,0,0,.88,8.19,2,2,0,0,0,2,1.66l3.09,0h0a2,2,0,0,0,1.54-.72,2,2,0,0,0,.44-1.67,45.1,45.1,0,0,1-.85-7.6,31.74,31.74,0,0,1,3-15.47,41,41,0,0,0,3.52-9.44,23.44,23.44,0,0,0-.2-8.71c-.39-2.06-.94-4.76-1.7-7.36A2,2,0,0,0,39,24.73l-3.17,0Z"></path><path class="cls-1" d="M64.75,76.44a1,1,0,0,1-1-1.21,46.14,46.14,0,0,0,.95-7.75,32.68,32.68,0,0,0-2.93-16,40.35,40.35,0,0,1-3.34-9.24,22.45,22.45,0,0,1,.3-8.33c.44-2.16,1-4.71,1.76-7.24a1,1,0,0,1,1-.72h3.17a1,1,0,0,1,.82.42,1,1,0,0,1,.14.91,67,67,0,0,0-1.89,7.54,17.61,17.61,0,0,0-.27,6.46,37.08,37.08,0,0,0,3,8,37.31,37.31,0,0,1,3.39,18.28,49.89,49.89,0,0,1-1,8,1,1,0,0,1-1,.82Z"></path><path class="cls-1" d="M64.64,27a70.89,70.89,0,0,0-1.92,7.66,18.71,18.71,0,0,0-.27,6.83,37.64,37.64,0,0,0,3,8.26,36.4,36.4,0,0,1,3.29,17.8,48.81,48.81,0,0,1-.93,7.88H64.75a46.37,46.37,0,0,0,1-7.9,33.6,33.6,0,0,0-3-16.43,39.09,39.09,0,0,1-3.26-9,21.54,21.54,0,0,1,.29-8c.45-2.22,1-4.72,1.74-7.15h3.17m0-2H61.47a2,2,0,0,0-1.93,1.44c-.79,2.58-1.37,5.28-1.79,7.33a23.56,23.56,0,0,0-.3,8.7,41.14,41.14,0,0,0,3.41,9.49,31.76,31.76,0,0,1,2.85,15.5A46.25,46.25,0,0,1,62.77,75a2,2,0,0,0,2,2.42h3.09a2,2,0,0,0,2-1.64,50.5,50.5,0,0,0,1-8.18A38.29,38.29,0,0,0,67.31,48.9a35.92,35.92,0,0,1-2.87-7.75,16.7,16.7,0,0,1,.26-6.09,68.36,68.36,0,0,1,1.86-7.43,2,2,0,0,0-.29-1.81A2,2,0,0,0,64.64,25Z"></path><path class="cls-1" d="M51.23,58l-.25.08a4.09,4.09,0,0,1-.95.14,4.32,4.32,0,0,1-2.8-.88,4.68,4.68,0,0,1-1.71-2.53,5.48,5.48,0,0,1-.12-.58c0-.18,0-.33,0-.46a2.93,2.93,0,0,1,0-.3v-.1l1.22.12,0,0a.83.83,0,0,1,0-.12l-.07-.2a.93.93,0,0,0,0-.13l0-.14a2.79,2.79,0,0,1-.06-.33q0-.18,0-.39c0-.13,0-.28,0-.42s.05-.3.07-.46a4.77,4.77,0,0,1,.71-1.67c.08-.1.15-.21.22-.29l.18-.22.17-.19-.25,0-.29.06-.38.1a6,6,0,0,0-2,1l-.49.43c-.15.16-.3.31-.44.47l-.37.49c-.12.17-.21.33-.3.48s-.09.15-.13.22l-.1.21-.16.35-.09.22,0,.09,1.23.12,0,.14c0,.09,0,.22,0,.38s0,.38,0,.61,0,.5.08.79a1.43,1.43,0,0,1,0,.22,1.74,1.74,0,0,0,0,.22c0,.16.08.31.13.47s.11.32.18.49l0,.12.06.13.12.24A6.65,6.65,0,0,0,46,58.88a6.73,6.73,0,0,0,2,1.25,6.5,6.5,0,0,0,2,.45,7.18,7.18,0,0,0,1.48-.06l.42-.08.14,0L51.32,58Z"></path><path class="cls-1" d="M57.1,54.07c0-.09,0-.22,0-.39s0-.37,0-.6a6,6,0,0,0-.08-.79l0-.22c0-.07,0-.15-.05-.22s-.09-.31-.13-.48-.12-.31-.18-.48l-.05-.12-.06-.13-.12-.24A6.42,6.42,0,0,0,55,48.56a6.73,6.73,0,0,0-2-1.25,6.5,6.5,0,0,0-2-.45,7.32,7.32,0,0,0-1.49.06l-.41.08L49,47l.69,2.42.09,0,.25-.07a4,4,0,0,1,1-.14,4.32,4.32,0,0,1,2.8.88,4.64,4.64,0,0,1,1.71,2.53c.06.21.08.41.12.58s0,.33,0,.46a2.93,2.93,0,0,0,0,.3v.1l-1.22-.12,0,0a.83.83,0,0,1,0,.12l.07.2,0,.13,0,.14a2.46,2.46,0,0,1,.06.33q0,.18,0,.39c0,.13,0,.28,0,.42s0,.3-.07.46a4.77,4.77,0,0,1-.71,1.67l-.22.29-.18.22-.17.18.25,0,.29-.06.38-.1a6,6,0,0,0,2-1.05l.49-.43c.15-.16.29-.32.44-.47l.37-.5c.12-.16.2-.32.3-.47s.09-.15.13-.22A2.09,2.09,0,0,1,58,55l.16-.35.09-.22,0-.09-1.23-.12Z"></path></svg> 