<?xml version="1.0" encoding="UTF-8"?> <svg xmlns="http://www.w3.org/2000/svg" id="Layer_1" data-name="Layer 1" viewBox="0 0 66 66"><defs><style>.cls-1{fill:#fafbfc;}.cls-2{fill:#3fbb99;}.cls-3{fill:#ffc761;}.cls-4{fill:#ffd780;}.cls-5{fill:#ffe9ba;}.cls-6{fill:#423e31;}.cls-7{fill:#e0dcdb;}.cls-8{fill:#b8b6b4;}</style></defs><title>question</title><rect class="cls-1" x="7.09" y="0.61" width="51.83" height="64.79" rx="9.11"></rect><path class="cls-2" d="M52,41.13c1-1,.65-3-.78-4.43L48.6,34.13c-1.43-1.43-3.42-1.79-4.43-.78s-.65,3,.79,4.42l2.57,2.58C49,41.78,51,42.13,52,41.13Z"></path><rect class="cls-3" x="32.04" y="42.33" width="10.85" height="11.01" transform="translate(-22.85 40.5) rotate(-45)"></rect><rect class="cls-4" x="32.04" y="45.22" width="10.85" height="5.24" transform="translate(-22.85 40.48) rotate(-44.97)"></rect><polygon class="cls-5" points="26.29 59.01 29.74 47.78 37.52 55.56 26.29 59.01"></polygon><polygon class="cls-6" points="26.29 59.01 27.39 55.42 29.89 57.91 26.29 59.01"></polygon><rect class="cls-7" x="40.06" y="35.5" width="8.48" height="11.01" transform="translate(-16.02 43.35) rotate(-45.01)"></rect><polygon class="cls-8" points="47.6 45.49 39.81 37.7 38.99 38.53 46.78 46.31 47.6 45.49"></polygon><rect class="cls-8" x="44.73" y="34.49" width="1.16" height="11.01" transform="translate(-15.01 43.74) rotate(-44.98)"></rect></svg> 