<?xml version="1.0" encoding="UTF-8"?> <svg xmlns="http://www.w3.org/2000/svg" id="Layer_1" data-name="Layer 1" viewBox="0 0 66 66"><defs><style>.cls-1,.cls-4{fill:#fff;}.cls-1,.cls-2{stroke:#3fbb99;stroke-miterlimit:10;stroke-width:1.95px;}.cls-2{fill:#f7f8f8;}.cls-3{fill:#cadfed;}</style></defs><title>saliva</title><rect class="cls-1" x="19.38" y="2.62" width="27.24" height="9.57" rx="4.19"></rect><path class="cls-2" d="M22.4,11.14V52.77a10.61,10.61,0,1,0,21.21,0V11.14Z"></path><path class="cls-3" d="M31.34,27.05c-1.85,1.08-3.74-.74-5.65-.83-.25,0-1.61.32-1.86.32V53.19A9.05,9.05,0,0,0,33.41,62a9.34,9.34,0,0,0,8.76-9.59V27.05C42.1,27.05,34.6,25.09,31.34,27.05Z"></path><path class="cls-4" d="M27,51.24a.53.53,0,0,1-.53.53.53.53,0,0,1,0-1.06A.53.53,0,0,1,27,51.24Z"></path><path class="cls-4" d="M27.52,56.12a.45.45,0,1,1-.45-.44A.45.45,0,0,1,27.52,56.12Z"></path><path class="cls-4" d="M32.24,54.17A1.14,1.14,0,1,1,31.1,53,1.14,1.14,0,0,1,32.24,54.17Z"></path><circle class="cls-4" cx="32.75" cy="59.89" r="0.51"></circle><path class="cls-4" d="M36.84,53.11a.76.76,0,0,1-.77.77.77.77,0,1,1,0-1.54A.76.76,0,0,1,36.84,53.11Z"></path><path class="cls-4" d="M38.27,57.81a1.41,1.41,0,1,1-1.41-1.4A1.41,1.41,0,0,1,38.27,57.81Z"></path><path class="cls-4" d="M40.42,51.79a.55.55,0,1,1-1.09,0,.55.55,0,1,1,1.09,0Z"></path><path class="cls-4" d="M34.07,50.83a.41.41,0,1,1-.41-.41A.41.41,0,0,1,34.07,50.83Z"></path><circle class="cls-4" cx="36.98" cy="50.57" r="0.51"></circle><path class="cls-4" d="M33.66,57.28a.71.71,0,1,1-.71-.71A.71.71,0,0,1,33.66,57.28Z"></path><path class="cls-4" d="M28.39,58.07a.25.25,0,0,1-.25.25.26.26,0,0,1-.26-.25.26.26,0,0,1,.26-.26A.26.26,0,0,1,28.39,58.07Z"></path><path class="cls-4" d="M29.31,52.72A.72.72,0,1,1,28.6,52,.71.71,0,0,1,29.31,52.72Z"></path><path class="cls-4" d="M26.38,54.31a.15.15,0,0,1-.15.14.14.14,0,0,1,0-.28A.15.15,0,0,1,26.38,54.31Z"></path><path class="cls-4" d="M32,51.66a.42.42,0,0,1-.42.43.43.43,0,1,1,0-.85A.42.42,0,0,1,32,51.66Z"></path><path class="cls-4" d="M31.24,57.92a.64.64,0,0,1-1.28,0,.64.64,0,0,1,.64-.64A.64.64,0,0,1,31.24,57.92Z"></path><path class="cls-4" d="M38.68,54.09a.37.37,0,0,1-.37.36.36.36,0,0,1-.37-.36.37.37,0,0,1,.37-.37A.38.38,0,0,1,38.68,54.09Z"></path><circle class="cls-4" cx="40.06" cy="55.72" r="0.41"></circle><path class="cls-4" d="M34.94,54.93a.19.19,0,0,1-.19.19.2.2,0,0,1-.19-.19.19.19,0,0,1,.19-.19A.18.18,0,0,1,34.94,54.93Z"></path></svg> 